<?xml version="1.0" standalone="no"?>
<!DOCTYPE svg PUBLIC "-//W3C//DTD SVG 20010904//EN"
 "http://www.w3.org/TR/2001/REC-SVG-20010904/DTD/svg10.dtd">
<svg version="1.0" xmlns="http://www.w3.org/2000/svg"
 width="700.000000pt" height="700.000000pt" viewBox="0 0 700.000000 700.000000"
 preserveAspectRatio="xMidYMid meet">
<metadata>
Created by potrace 1.11, written by Peter Selinger 2001-2013
</metadata>
<g transform="translate(0.000000,700.000000) scale(0.100000,-0.100000)"
fill="#000000" stroke="none">
<path d="M3661 6984 c-199 -42 -374 -143 -496 -285 -308 -361 -286 -887 52
-1210 161 -154 355 -236 578 -245 373 -13 708 205 845 552 16 40 32 88 35 105
3 18 8 35 10 39 2 3 7 33 11 65 54 447 -220 851 -655 967 -96 25 -289 31 -380
12z m289 -290 c19 -3 61 -16 92 -29 421 -171 498 -734 138 -1010 -108 -82
-210 -117 -346 -117 -330 1 -594 259 -594 581 0 282 210 535 482 580 55 9 166
7 228 -5z"/>
<path d="M1600 6255 c-94 -25 -161 -79 -200 -162 -31 -66 -32 -169 -3 -236 17
-36 284 -448 326 -502 16 -21 659 -971 668 -987 6 -11 2 -47 -12 -105 -11 -48
-22 -97 -25 -108 -6 -33 -103 -449 -139 -605 -19 -80 -40 -174 -46 -210 -16
-93 -18 -267 -3 -363 18 -117 17 -115 89 -417 36 -151 74 -313 85 -360 11 -47
45 -191 75 -320 31 -129 58 -242 60 -250 1 -8 8 -34 14 -57 6 -22 15 -61 20
-84 9 -40 48 -209 86 -363 54 -226 127 -531 130 -545 24 -119 91 -364 110
-401 70 -138 215 -203 360 -162 79 22 137 71 179 152 33 62 38 107 51 425 3
72 7 171 10 220 3 50 7 146 10 215 5 136 11 265 20 460 4 69 8 170 10 225 6
163 16 349 19 352 3 3 38 -13 216 -94 30 -14 129 -59 220 -100 91 -41 179 -82
196 -89 l31 -15 -23 -117 c-13 -64 -26 -132 -29 -149 -2 -18 -9 -52 -14 -75
-6 -24 -12 -56 -15 -72 -3 -16 -10 -52 -15 -80 -6 -28 -12 -62 -15 -76 -2 -14
-14 -72 -25 -130 -12 -58 -24 -118 -27 -135 -2 -16 -10 -58 -18 -92 -21 -102
-20 -172 4 -235 63 -168 263 -222 431 -117 82 52 68 23 475 996 90 216 171
421 180 455 19 74 14 186 -12 261 -16 49 -93 172 -135 217 -12 14 -45 50 -73
80 -80 88 -443 474 -531 564 -62 65 -61 51 -26 198 17 73 55 239 85 368 l53
234 41 31 c22 16 133 95 246 175 302 213 369 260 391 276 11 8 124 88 250 178
127 91 257 184 290 209 33 24 120 88 193 142 147 107 194 161 218 243 21 71
14 174 -15 231 -55 106 -169 173 -296 174 -62 1 -86 -6 -215 -57 -80 -32 -163
-66 -185 -76 -22 -10 -200 -86 -395 -170 -195 -84 -383 -165 -418 -181 -35
-16 -66 -29 -68 -29 -3 0 -26 -10 -52 -21 -169 -77 -208 -91 -262 -91 -44 0
-459 97 -540 126 -8 3 -26 7 -40 10 -14 2 -90 21 -170 41 -80 20 -153 38 -163
40 -59 12 -174 48 -208 66 -30 15 -174 131 -209 169 -3 3 -41 36 -85 75 -44
38 -82 72 -85 75 -4 5 -217 194 -309 275 -18 17 -46 41 -61 55 -15 14 -58 52
-95 85 -38 33 -73 65 -79 70 -6 6 -47 42 -91 80 -44 39 -98 87 -120 108 -80
77 -194 109 -295 82z m146 -340 c6 -6 39 -35 74 -65 34 -30 74 -66 89 -80 15
-14 58 -52 95 -85 38 -33 74 -65 80 -71 6 -6 54 -48 106 -93 52 -46 100 -88
105 -95 6 -6 46 -42 90 -81 44 -38 82 -72 85 -75 3 -3 41 -36 85 -75 44 -38
100 -88 125 -111 80 -74 114 -101 172 -138 31 -20 60 -36 63 -36 3 0 24 -9 48
-19 23 -11 281 -79 572 -152 562 -141 612 -149 725 -123 30 7 161 58 290 114
800 347 1176 502 1204 498 39 -6 30 -30 -25 -71 -13 -9 -87 -64 -164 -120
-165 -121 -844 -606 -1165 -831 -124 -87 -226 -160 -228 -161 -3 -3 -59 -237
-68 -285 -3 -14 -20 -90 -39 -170 -19 -80 -36 -156 -39 -170 -3 -14 -7 -34
-10 -45 -23 -102 -40 -173 -57 -248 l-21 -87 40 -44 c22 -24 78 -83 124 -131
220 -231 506 -536 578 -615 47 -53 86 -111 100 -151 10 -29 11 -46 1 -85 -10
-40 -143 -372 -196 -489 -13 -28 -120 -284 -170 -405 -12 -30 -50 -119 -84
-198 -33 -79 -61 -149 -62 -155 0 -9 -2 -9 -5 0 -3 6 8 78 25 160 16 81 41
207 55 278 14 72 27 141 30 155 8 43 74 380 94 483 l19 99 -21 8 c-12 4 -59
26 -106 48 -47 22 -105 49 -130 60 -51 23 -598 272 -677 308 -105 48 -170 77
-250 115 -46 21 -83 37 -84 36 -2 -7 -8 -102 -14 -227 -3 -80 -8 -170 -10
-200 -3 -50 -8 -154 -20 -400 -4 -89 -14 -275 -20 -395 -2 -38 -7 -131 -10
-205 -3 -74 -8 -160 -10 -190 -2 -30 -7 -125 -11 -210 -4 -85 -8 -173 -10
-195 -1 -22 -3 -71 -3 -110 -1 -40 -5 -65 -10 -60 -5 6 -21 62 -36 125 -15 63
-51 216 -82 340 -30 124 -56 232 -58 240 -10 44 -82 345 -170 705 -26 105 -48
197 -50 205 -2 8 -17 74 -35 145 -17 72 -47 195 -66 275 -20 80 -37 152 -39
160 -2 8 -8 33 -13 55 -6 22 -13 51 -16 65 -2 14 -15 70 -29 125 -71 277 -76
436 -23 654 3 13 42 182 86 375 45 193 92 396 105 451 44 187 53 150 -81 347
-300 441 -824 1230 -903 1358 l-15 25 29 -25 c16 -14 34 -30 41 -35z"/>
<path d="M427 4822 l-427 -427 428 -428 429 -429 399 400 c219 221 411 413
426 429 l28 29 -428 427 -427 427 -428 -428z m655 -209 l218 -218 -222 -222
-223 -223 -222 221 -221 222 216 218 c120 120 221 219 227 219 5 0 108 -98
227 -217z"/>
<path d="M5984 4353 c-27 -48 -62 -113 -79 -144 -16 -31 -65 -121 -108 -201
l-79 -144 -76 -13 c-43 -7 -86 -15 -97 -17 -11 -2 -119 -22 -240 -44 -121 -22
-223 -41 -228 -43 -8 -2 19 -31 250 -274 216 -226 196 -198 189 -268 -3 -33
-8 -71 -11 -85 -4 -27 -31 -226 -40 -305 -4 -27 -8 -61 -10 -75 -14 -92 -16
-120 -6 -120 10 0 95 40 400 186 96 46 178 84 184 84 6 0 33 -11 61 -24 50
-24 280 -133 446 -213 47 -22 86 -40 87 -38 2 1 -4 53 -12 116 -8 63 -18 134
-21 159 -3 25 -7 55 -9 66 -2 12 -7 48 -10 80 -4 33 -9 67 -11 78 -2 10 -6 44
-10 75 -3 31 -8 60 -11 64 -2 4 29 42 69 85 41 42 111 115 155 162 240 252
237 249 211 251 -7 0 -20 2 -28 4 -31 6 -306 57 -335 62 -74 12 -266 51 -269
54 -1 2 -69 128 -151 279 -81 151 -151 279 -155 283 -4 5 -29 -31 -56 -80z
m117 -641 c64 -119 47 -109 212 -137 54 -10 97 -21 95 -25 -2 -4 -41 -47 -86
-95 l-84 -88 7 -64 c3 -35 8 -72 9 -81 11 -59 16 -112 12 -112 -3 0 -54 23
-113 51 -59 29 -112 52 -118 52 -9 0 -92 -37 -199 -89 -16 -8 -31 -12 -34 -10
-2 3 4 59 13 126 l18 121 -24 27 c-13 14 -51 55 -84 90 -33 35 -61 67 -63 72
-2 4 41 16 95 25 172 30 141 3 260 228 8 16 17 26 21 23 3 -4 32 -55 63 -114z"/>
<path d="M629 3066 c-96 -58 -179 -108 -184 -113 -6 -4 -26 -17 -45 -27 -19
-11 -60 -36 -91 -55 -31 -20 -80 -50 -108 -66 l-50 -30 340 -570 c188 -314
343 -575 345 -581 3 -5 -12 -18 -33 -28 -114 -54 -253 -179 -314 -283 -83
-140 -110 -245 -104 -408 6 -181 55 -296 180 -420 162 -163 370 -228 605 -189
179 30 307 96 450 230 204 193 301 453 267 719 -17 132 -52 212 -211 475 -71
118 -135 226 -143 240 -8 14 -23 39 -33 55 -11 17 -29 46 -40 65 -11 19 -25
42 -30 50 -33 51 -200 331 -200 335 0 2 -12 23 -27 47 -16 24 -33 52 -40 63
-58 98 -339 564 -348 578 -11 16 -28 8 -186 -87z m202 -506 c57 -96 107 -176
112 -178 4 -2 7 -8 7 -13 0 -6 16 -35 35 -65 19 -30 35 -57 35 -60 0 -3 10
-20 23 -37 12 -18 27 -41 33 -52 6 -11 117 -196 246 -411 267 -444 281 -476
280 -622 -2 -135 -60 -260 -172 -372 -111 -112 -242 -171 -373 -171 -166 0
-292 74 -355 207 -23 51 -27 72 -27 149 0 260 188 425 559 491 16 3 35 8 41
12 8 5 -50 109 -172 312 -101 168 -189 315 -196 328 -6 13 -87 148 -179 301
-92 153 -168 283 -170 289 -2 6 31 31 72 56 67 40 75 43 85 28 7 -9 59 -96
116 -192z"/>
<path d="M6705 1905 c-133 -20 -148 -23 -207 -44 -253 -87 -360 -216 -438
-526 -18 -71 -42 -148 -53 -171 -30 -63 -106 -106 -213 -119 -27 -4 -56 -8
-64 -10 -8 -2 -35 -7 -58 -10 -141 -20 -277 -86 -387 -190 -60 -55 -132 -204
-159 -326 -11 -49 -20 -194 -20 -295 1 -81 5 -108 20 -134 43 -73 120 -98 192
-61 62 32 75 65 78 196 5 248 40 374 124 443 46 38 151 76 245 88 154 19 213
35 303 81 56 29 133 97 168 148 43 64 93 202 110 305 11 64 46 155 78 197 18
25 54 54 86 71 89 48 140 60 313 77 90 8 110 17 142 59 33 43 39 95 18 147
-32 80 -105 100 -278 74z"/>
</g>
</svg>
